<?xml version="1.0" encoding="UTF-8"?>
<svg id="Capa_1" data-name="Capa 1" xmlns="http://www.w3.org/2000/svg" viewBox="0 0 194 250">
  <defs>
    <style>
      .cls-1 {
        fill: #ecb65c;
      }

      .cls-2 {
        fill: #eb5a24;
      }

      .cls-3 {
        fill: #fff;
      }

      .cls-4 {
        fill: #342046;
      }

      .cls-5 {
        fill: #939393;
      }

      .cls-6 {
        fill: #adadad;
      }

      .cls-7 {
        fill: #1b202c;
      }

      .cls-8 {
        opacity: .25;
      }

      .cls-9 {
        opacity: .6;
      }

      .cls-10 {
        opacity: .55;
      }

      .cls-11 {
        opacity: .7;
      }
    </style>
  </defs>
  <path class="cls-3" d="M55.94,119.41l-.37-15.42c-.1-3.98,3.11-7.25,7.08-7.24l66.83,.15c3.9,0,7.05,3.17,7.05,7.07v15.44"/>
  <path class="cls-4" d="M55.94,120.5c-.59,0-1.08-.47-1.09-1.07l-.37-15.42c-.05-2.22,.77-4.32,2.33-5.9,1.55-1.58,3.62-2.45,5.83-2.45h.02l66.83,.15c4.49,.01,8.15,3.67,8.15,8.16v15.44c0,.6-.49,1.09-1.09,1.09s-1.09-.49-1.09-1.09v-15.44c0-3.29-2.67-5.97-5.96-5.98l-66.83-.15c-1.62-.01-3.15,.63-4.28,1.8-1.14,1.16-1.74,2.7-1.7,4.32l.37,15.42c.01,.6-.46,1.11-1.07,1.12,0,0-.02,0-.03,0Z"/>
  <path class="cls-3" d="M148.82,158.74H57.2l1.38-18.35h0s.15-2.01,.15-2.01c0,0-4.86,5.35-17.16,1.58-12.29-3.77-20.32-24.98-20.32-24.98-7.93-4.38-10.67-12.58-10.94-18.42-.12-2.48,.67-4.51,2.07-6.02,1.89-2.04,4.89-3.15,8.32-3.24,5.97-.13,10.44,9.44,10.44,9.44,0,0,1.46-.59,3.51-5.56,2.05-4.97,6.84-2.14,6.7,.33-.14,2.47-2.19,5.74-2.65,8.43-.45,2.69-.96,6.66-.96,6.66,4.29,4.74,9.06,10.51,9.06,10.51,10.09-13.13,22.67-16.17,22.67-16.17l8.75-2.92s20.37-6.32,40.31,.23c2.57,.85,5.14,1.9,7.66,3.22,21.99,11.51,22.61,57.28,22.61,57.28Z"/>
  <path class="cls-4" d="M148.82,159.83H57.2c-.3,0-.6-.13-.8-.35-.21-.22-.31-.52-.29-.83l1.35-18.03c-2.6,1.42-7.76,2.96-16.21,.37-11.89-3.65-19.69-22.28-20.88-25.27-9.78-5.62-11.01-16.04-11.16-19.13-.13-2.67,.7-5.03,2.38-6.84,2.06-2.21,5.28-3.47,9.08-3.56,.05,0,.1,0,.15,0,5.14,0,9.07,5.97,10.6,8.72,.53-.71,1.3-1.97,2.21-4.17,1.07-2.58,3.04-3.82,5.28-3.31,2.04,.46,3.63,2.31,3.53,4.12-.08,1.51-.76,3.19-1.42,4.82-.52,1.28-1.05,2.6-1.24,3.73-.35,2.08-.74,4.97-.89,6.11,3.08,3.42,6.36,7.32,7.89,9.14,10.04-12.38,21.92-15.37,22.44-15.5,.59-.14,1.18,.22,1.32,.81,.14,.59-.22,1.18-.81,1.32h0c-.12,.03-12.35,3.13-22.06,15.77-.2,.26-.51,.42-.85,.43-.33,.01-.65-.14-.86-.4-.05-.06-4.81-5.81-9.03-10.48-.21-.24-.31-.55-.27-.87,0-.04,.51-4.02,.96-6.7,.23-1.36,.81-2.79,1.37-4.18,.59-1.46,1.2-2.97,1.26-4.12,.04-.66-.75-1.62-1.83-1.86-1.47-.33-2.32,.91-2.77,2.01-2.07,5-3.67,5.98-4.11,6.16-.54,.22-1.16-.02-1.4-.55-1.15-2.46-5.06-8.81-9.33-8.81-.03,0-.07,0-.1,0-3.2,.07-5.88,1.09-7.53,2.86-1.29,1.38-1.89,3.15-1.8,5.24,.13,2.84,1.27,12.49,10.38,17.51,.23,.13,.4,.33,.49,.57,.08,.21,7.98,20.76,19.61,24.32,11.38,3.49,15.85-1.08,16.03-1.28,.32-.34,.82-.44,1.24-.26,.42,.19,.69,.62,.65,1.08l-1.44,19.19h89.31c-.28-7.01-2.71-45.12-21.99-55.22-21.32-11.16-46.87-3.45-47.13-3.37-.58,.18-1.19-.14-1.37-.72-.18-.58,.14-1.19,.72-1.37,.27-.08,6.72-2.06,15.99-2.64,8.57-.53,21.22,.1,32.8,6.16,9.42,4.93,16.19,16.26,20.11,33.69,2.9,12.84,3.09,24.43,3.09,24.55,0,.29-.11,.57-.32,.78-.21,.21-.49,.33-.78,.33ZM30.66,95.76h0s0,0,0,0Z"/>
  <path class="cls-4" d="M28.83,129.29c-.44,0-.86-.27-1.03-.71-.21-.57,.08-1.2,.65-1.41,11.35-4.21,14.26-12.87,14.29-12.96,.19-.57,.8-.89,1.38-.71,.57,.18,.89,.8,.71,1.37-.13,.4-3.22,9.74-15.62,14.34-.13,.05-.25,.07-.38,.07Z"/>
  <path class="cls-4" d="M31.67,97.7c-2.1,1.07-3.34,3.44-4.27,5.54,0,0-.4,1.03-.4,1.03,.24-2.26,.74-4.53,1.92-6.52,.47-.74,.97-1.46,1.71-1.98,1.29-.65,2.29,1.21,1.04,1.93h0Z"/>
  <polygon class="cls-4" points="38.67 107.2 35.39 110.05 36.86 105.96 38.67 107.2 38.67 107.2"/>
  <path class="cls-4" d="M25.36,95.18c-3.02,2.42-6.14,4.22-8.66,7.2,.1-4.16,4.75-7.28,8.66-7.2h0Z"/>
  <path class="cls-4" d="M47.71,116.47l5.09,9.08-6.88-7.82c-1.01-1.25,.93-2.63,1.79-1.27h0Z"/>
  <g>
    <path class="cls-2" d="M59.31,136.37c-.1,1.51-.05,3.17,.08,4.9,.09,1.21,1.1,2.15,2.31,2.16l69.97,.6c1.21,.01,2.2-.97,2.22-2.18,.03-1.91-.08-3.76-.36-5.52-.17-1.06-1.09-1.85-2.16-1.85l-69.71-.29c-1.23,0-2.26,.94-2.34,2.17Z"/>
    <g class="cls-8">
      <path class="cls-4" d="M133.89,141.86c-.02,1.21-1,2.19-2.22,2.18l-69.97-.6c-1.21-.01-2.22-.95-2.31-2.16-.13-1.73-.18-3.39-.08-4.9,0-.05,0-.09,.02-.13,.02,.34,.04,.68,.07,1.03,.09,1.21,1.1,2.15,2.31,2.16l69.97,.6c1,0,1.83-.64,2.11-1.55,.09,1.1,.12,2.22,.1,3.37Z"/>
    </g>
    <path class="cls-4" d="M131.69,145.38s-.02,0-.03,0l-69.97-.6c-1.9-.02-3.5-1.52-3.64-3.41-.15-1.99-.18-3.66-.08-5.09h0c.12-1.93,1.74-3.43,3.68-3.43h.02l69.71,.29c1.74,0,3.21,1.26,3.48,2.98,.28,1.77,.41,3.65,.37,5.75-.03,1.94-1.61,3.51-3.54,3.51Zm-70.05-9.84c-.52,0-.96,.4-.99,.91h0c-.08,1.3-.06,2.85,.08,4.71,.04,.51,.47,.91,.98,.92l69.97,.6c.47,.01,.85-.38,.86-.85,.03-1.94-.08-3.67-.34-5.29-.07-.41-.42-.72-.84-.72l-69.71-.29h0Zm-2.33,.83h0Z"/>
    <path class="cls-3" d="M118.96,132.25v14.68c0,3.86-3.13,7-7,7h-24.45c-2.17,0-4.11-.99-5.39-2.53-1.01-1.21-1.61-2.77-1.61-4.46v-14.5c0-3.61,2.75-6.62,6.35-6.97,8.32-.81,17.18-.88,25.63-.19,1.9,.15,3.57,1.05,4.74,2.38h0c1.08,1.24,1.72,2.84,1.72,4.59Z"/>
    <path class="cls-6" d="M111.96,155.27h-24.45c-4.6,0-8.34-3.74-8.34-8.34v-14.5c0-4.31,3.25-7.88,7.56-8.31,8.39-.82,17.33-.89,25.87-.19,4.32,.35,7.7,4,7.7,8.32v14.68c0,4.6-3.74,8.34-8.34,8.34Zm-11.24-29.12c-4.64,0-9.26,.22-13.72,.65-2.93,.29-5.13,2.71-5.13,5.63v14.5c0,3.12,2.53,5.65,5.65,5.65h24.45c3.12,0,5.65-2.53,5.65-5.65v-14.68c0-2.97-2.25-5.39-5.22-5.64-3.84-.31-7.75-.47-11.67-.47Z"/>
    <g class="cls-8">
      <path class="cls-4" d="M118.96,132.25v14.68c0,3.86-3.13,7-7,7h-24.45c-2.17,0-4.11-.99-5.39-2.53,18.05-1.71,29.99-9.39,35.11-23.73,1.08,1.23,1.72,2.84,1.72,4.59Z"/>
    </g>
    <ellipse class="cls-2" cx="99.54" cy="139.04" rx="8.53" ry="9.2"/>
    <path class="cls-4" d="M99.54,150.25c-5.81,0-10.54-5.03-10.54-11.21s4.73-11.21,10.54-11.21,10.54,5.03,10.54,11.21-4.73,11.21-10.54,11.21Zm0-18.41c-3.6,0-6.52,3.23-6.52,7.2s2.93,7.2,6.52,7.2,6.52-3.23,6.52-7.2-2.93-7.2-6.52-7.2Z"/>
  </g>
  <path class="cls-4" d="M60.56,134.17c.79-7.02,2.59-13.95,5.83-20.23-1.28,3.24-2.18,6.61-2.75,10.04-.57,3.37-.91,6.87-.9,10.27,0,0-2.19-.07-2.19-.07h0Z"/>
  <path class="cls-4" d="M131.71,135.09c-.04-3.57-.35-7.21-.9-10.75-.59-3.57-1.43-7.12-3.03-10.4,.97,1.55,1.74,3.22,2.42,4.92,1.95,5.19,3.05,10.62,3.7,16.12,0,0-2.19,.1-2.19,.1h0Z"/>
  <g class="cls-8">
    <path class="cls-4" d="M63.3,123.02l-1.64,9.4s-2.49,2.26-2.28,4.62c.07,.75-.24,1.99-.79,3.34l.15-2.01s-4.86,5.35-17.16,1.58c-12.29-3.77-20.32-24.98-20.32-24.98-7.93-4.38-10.67-12.58-10.94-18.42-.12-2.48,.67-4.51,2.07-6.02,.74,3.26,3.21,15.56,10.88,19.16,3.24,1.52,5.92,4.04,7.85,7.06,3.91,6.13,10.45,14.91,16.65,16.36,9.69,2.28,15.53-10.1,15.53-10.1Z"/>
  </g>
  <g class="cls-8">
    <path class="cls-4" d="M129.03,111.51c-16.51,14.04-49.47-.7-49.47-.7l38.99-12.56c2.57,.85,5.14,1.9,7.66,3.22,21.99,11.51,22.61,57.28,22.61,57.28h-24.7c.73-.68,1.48-1.35,2.26-2.01,24.44-20.42,2.64-45.23,2.64-45.23Z"/>
  </g>
  <g>
    <circle class="cls-5" cx="94.99" cy="66.69" r="46.73"/>
    <g class="cls-8">
      <path class="cls-4" d="M141.7,68.14c-.81,25.8-22.37,46.05-48.16,45.24-6.81-.21-13.24-1.87-18.99-4.68,1.27,.15,2.56,.24,3.86,.28,25.79,.81,47.36-19.45,48.16-45.24,.59-18.98-10.22-35.67-26.26-43.48,23.92,2.71,42.15,23.39,41.38,47.88Z"/>
    </g>
    <path class="cls-4" d="M141.76,66.26c-3.93,46.85-71.83,52.8-91.11,15.19-1.17-3.22-1.91-7.25-2.3-11.96,5.87-39.69,72.98-47.51,92.95-9.09,.37,2.12,.51,4.07,.46,5.87Z"/>
    <g class="cls-11">
      <path class="cls-7" d="M141.76,66.26c-3.89,46.36-70.43,52.67-90.49,16.33,7.98,7.39,18.56,12.05,30.28,12.41,25.79,.81,47.36-19.45,48.16-45.24,.04-1.16,.03-2.3-.02-3.44,4.67,3.71,8.66,8.38,11.61,14.07,.36,2.11,.51,4.07,.46,5.87Z"/>
    </g>
    <path class="cls-4" d="M95.03,114.51c-.51,0-1.02,0-1.53-.02-12.77-.4-24.61-5.75-33.36-15.05-8.75-9.31-13.34-21.47-12.94-34.23,.4-12.77,5.75-24.61,15.05-33.36,9.31-8.75,21.48-13.34,34.23-12.94,26.35,.82,47.13,22.93,46.3,49.29-.4,12.77-5.75,24.61-15.05,33.36-8.94,8.4-20.5,12.97-32.7,12.97Zm-.07-93.45c-11.65,0-22.68,4.36-31.21,12.37-8.88,8.35-13.99,19.65-14.37,31.83-.38,12.18,4.01,23.78,12.35,32.67,8.35,8.88,19.65,13.99,31.83,14.37,12.18,.38,23.78-4.01,32.67-12.35,8.88-8.35,13.99-19.65,14.37-31.83,.38-12.18-4.01-23.78-12.35-32.67-8.35-8.88-19.65-13.99-31.83-14.37-.49-.02-.97-.02-1.46-.02Z"/>
    <path class="cls-4" d="M48.35,70.55c-.05,0-.1,0-.16-.01-.58-.09-.98-.63-.9-1.21,1.34-9.03,5.9-17.03,13.21-23.14,6.71-5.61,15.41-9.45,25.17-11.08,19.99-3.36,45.24,3.01,56.56,24.8,.27,.52,.07,1.16-.45,1.43-.52,.27-1.16,.07-1.43-.45-10.83-20.84-35.09-26.91-54.33-23.68-15.78,2.65-33.69,12.56-36.63,32.44-.08,.53-.53,.91-1.05,.91Z"/>
    <path class="cls-4" d="M49.84,55.9c-.18,0-.37-.04-.54-.12-.64-.3-.91-1.06-.61-1.7,3.28-6.97,8.76-13.06,15.85-17.6,6.8-4.36,14.9-7.21,23.44-8.26,19.9-2.44,39.08,5.05,51.3,20.04,.45,.55,.36,1.35-.18,1.8-.55,.44-1.35,.36-1.8-.18-11.66-14.31-29.98-21.46-49.01-19.12-16.89,2.07-31.18,11.43-37.29,24.41-.22,.46-.68,.73-1.16,.73Z"/>
    <path class="cls-4" d="M94.46,107.26c-7.18,0-14.32-1.32-20.84-3.91-10.79-4.29-19.11-11.67-24.07-21.34-.31-.61-.07-1.36,.54-1.67,.61-.31,1.36-.07,1.67,.54,10.68,20.85,35.18,26.46,53.42,22.86,15.83-3.13,33.42-14.64,35.35-37.58,.06-.68,.65-1.19,1.34-1.13,.68,.06,1.19,.66,1.13,1.34-.89,10.62-5.14,19.96-12.31,27.03-6.49,6.41-15.15,10.82-25.03,12.78-3.69,.73-7.45,1.09-11.2,1.09Z"/>
    <g class="cls-10">
      <path class="cls-3" d="M91.9,43.6c-18.41,7.94-28.8,21.26-29.85,40.84-.04,.66-.94,.83-1.22,.23-8.02-17.44-4.77-36.08,30.71-42.28,.75-.13,1.06,.92,.36,1.22Z"/>
    </g>
    <g class="cls-10">
      <ellipse class="cls-3" cx="124.95" cy="64.45" rx="4.66" ry="4.3" transform="translate(56.63 187.32) rotate(-88.21)"/>
    </g>
    <g class="cls-10">
      <path class="cls-3" d="M121.31,75.91c-1.17,3.63-2.95,7.15-5.09,10.62-1.07,1.74-.4,4.11,1.49,4.9,1.1,.46,2.34,.46,3.71,.07,4.58-2.25,7.97-6.03,7.58-14.19-.05-1.07-.61-2.06-1.49-2.67-.63-.44-1.3-.76-1.99-.96-1.77-.52-3.64,.49-4.21,2.24Z"/>
    </g>
  </g>
  <g>
    <polyline class="cls-1" points="30.65 158.87 10.31 180.07 182.86 180.07 165.36 158.87"/>
    <g class="cls-8">
      <polyline class="cls-4" points="165.51 160.83 165.51 180.07 182.19 180.07"/>
    </g>
    <g class="cls-8">
      <path class="cls-4" d="M30.65,160.99c0,.36-14.95,19.09-14.95,19.09h14.95"/>
    </g>
    <path class="cls-4" d="M182.86,181.17H10.31c-.44,0-.83-.26-1.01-.66-.17-.4-.09-.87,.22-1.19l20.34-21.21c.42-.44,1.11-.45,1.55-.03,.44,.42,.45,1.11,.03,1.55l-18.57,19.36H180.54l-16.03-19.42c-.38-.47-.32-1.16,.15-1.54,.47-.38,1.16-.32,1.54,.15l17.5,21.21c.27,.33,.33,.78,.15,1.16-.18,.38-.57,.63-.99,.63Z"/>
    <rect class="cls-1" x="30.65" y="158.87" width="134.71" height="71.18"/>
    <g class="cls-8">
      <polyline class="cls-4" points="123.29 159.83 123.29 230.04 164.14 230.04 164.14 158.43"/>
    </g>
    <g class="cls-8">
      <path class="cls-4" d="M99.74,159.89c-.67,44.97-27.44,64.36-68.11,70.15H118.06v-70.76"/>
    </g>
    <polygon class="cls-1" points="118.67 158.87 30.65 158.87 14.6 135.03 102.62 135.03 118.67 158.87"/>
    <g class="cls-9">
      <path class="cls-3" d="M33.76,158.87l.26,.42v70.31s-.04,.16-.11,.45h-3.26v-71.18l-16.05-23.83H101.95l-81.15,2.82,12.96,21.01Z"/>
    </g>
    <g class="cls-8">
      <path class="cls-4" d="M100.54,137.04s-14.45,18.37-60.65,21.82H118.38l-16.43-23.83"/>
    </g>
    <path class="cls-4" d="M118.67,159.96H30.65c-.36,0-.7-.18-.91-.48l-16.05-23.83c-.23-.34-.25-.77-.06-1.13,.19-.36,.56-.58,.97-.58H102.62c.36,0,.7,.18,.91,.48l16.05,23.83c.23,.34,.25,.77,.06,1.13-.19,.36-.56,.58-.97,.58Zm-87.44-2.19H116.61l-14.57-21.64H16.66l14.57,21.64Z"/>
    <polygon class="cls-1" points="181.4 135.03 180.59 136.24 165.64 158.43 165.36 158.87 118.67 158.87 134.72 135.03 181.4 135.03"/>
    <g class="cls-8">
      <polygon class="cls-4" points="180.59 136.24 165.64 158.43 122.44 158.43 136.54 139.12 180.59 136.24"/>
    </g>
    <path class="cls-4" d="M165.35,159.96h-46.68c-.4,0-.78-.22-.97-.58-.19-.36-.17-.79,.06-1.13l16.05-23.83c.2-.3,.54-.48,.91-.48h46.68c.4,0,.78,.22,.97,.58,.19,.36,.17,.79-.06,1.13l-16.05,23.83c-.2,.3-.54,.48-.91,.48Zm-44.63-2.19h44.05l14.57-21.64h-44.05l-14.57,21.64Z"/>
    <path class="cls-4" d="M165.36,231.13H30.65c-.6,0-1.09-.49-1.09-1.09v-71.18c0-.6,.49-1.09,1.09-1.09H165.36c.6,0,1.09,.49,1.09,1.09v71.18c0,.6-.49,1.09-1.09,1.09Zm-133.61-2.19H164.26v-68.99H31.74v68.99Z"/>
    <path class="cls-4" d="M118.67,231.13c-.6,0-1.09-.49-1.09-1.09v-71.18c0-.6,.49-1.09,1.09-1.09s1.09,.49,1.09,1.09v71.18c0,.6-.49,1.09-1.09,1.09Z"/>
  </g>
  <path class="cls-4" d="M30.69,231.13l-24.94-.09,24.85-2.1c1.51-.07,1.6,2.14,.09,2.19h0Z"/>
  <path class="cls-4" d="M165.4,228.95l22.84,2.1-22.93,.09c-1.51-.05-1.42-2.27,.1-2.19h0Z"/>
  <g>
    <path class="cls-4" d="M54.43,224.75s-.01,.05-.05,.05c-.03,0-.05,0-.08,0-1.31,0-2.62,0-3.94,0-.07,0-.09-.01-.08-.08,.01-.08-.03-.19,.02-.25,.05-.05,.15-.04,.23-.06,.27-.06,.54-.12,.81-.19,.41-.1,.71-.48,.71-.92,0-.84,0-1.69,0-2.53,0-.29-.15-.51-.41-.63-.57-.26-.93-.7-1.07-1.32-.07-.28-.03-.56-.01-.84,.04-.59,.08-1.18,.12-1.77,.03-.43,.06-.86,.09-1.29,0-.04,0-.06,.06-.06,.92,0,1.83,0,2.75,0,0,0,0,0,.03,0-.47,.37-.93,.73-1.4,1.09,.11,.09,.21,.18,.31,.27,.13,.11,.25,.22,.38,.33,.03,.03,.04,.04,0,.08-.52,.55-1.04,1.11-1.56,1.66-.05,.06-.1,.11-.14,.18,.09-.07,.17-.13,.26-.2,.72-.56,1.45-1.11,2.17-1.67,.05-.04,.06-.06,0-.11-.19-.19-.38-.38-.57-.57-.03-.03-.04-.05,0-.09,.26-.32,.51-.64,.77-.95,.04-.05,.09-.04,.13-.03,.04,0,.02,.05,.02,.08,.05,.66,.09,1.32,.13,1.98,.03,.5,.09,1,.09,1.5,0,.8-.39,1.37-1.1,1.72-.28,.14-.42,.35-.42,.66,0,.82,0,1.64,0,2.46,0,.5,.3,.88,.78,.98,.31,.07,.62,.14,.93,.21,.04,0,.06,.02,.05,.06,0,.08,0,.16,0,.24Z"/>
    <g>
      <path class="cls-4" d="M42.17,219.92c-.38-.33-.81-.46-1.29-.46-.48,0-.92,.13-1.3,.45-.03-.18-.04-.36-.04-.53,.03-1.03,.47-1.86,1.27-2.49,.05-.04,.08-.03,.12,0,.7,.54,1.12,1.25,1.24,2.13,.04,.3,.04,.59-.01,.9Z"/>
      <path class="cls-4" d="M39.35,219.75c-.59-.28-1.19-.32-1.8-.1,.13-1.33,1.3-2.62,2.96-2.79-.85,.78-1.24,1.73-1.16,2.89Z"/>
      <path class="cls-4" d="M44.2,219.61c-.62-.19-1.22-.13-1.79,.19,.1-1.18-.29-2.15-1.14-2.94,1.44,.11,2.78,1.29,2.93,2.74Z"/>
      <path class="cls-4" d="M41.7,224.8c-.45,0-.83-.36-.9-.82-.01-.09-.02-.17-.02-.26v-1.99c0-.71,0-1.42,0-2.12,0-.05,.01-.07,.07-.07,.14,0,.14,0,.14,.15,0,1.34,0,2.68,0,4.02,0,.15,.01,.29,.07,.43,.12,.29,.45,.48,.74,.44,.37-.06,.61-.29,.66-.65,0-.06,0-.12,.01-.19,0-.07,.05-.11,.11-.11,.06,0,.1,.05,.11,.11,.03,.59-.42,1.07-.99,1.06Z"/>
      <path class="cls-4" d="M40.98,216.69s-.11,0-.17,0c-.03,0-.03-.02-.03-.04,0-.13,0-.26,0-.4,0-.06,.05-.11,.1-.11,.06,0,.1,.04,.11,.11,0,0,0,0,0,.01v.19s0,.06,0,.09c0,.05,.02,.11-.01,.14Z"/>
      <path class="cls-4" d="M41.04,215.15c-.04-.11-.09-.2-.16-.31-.07,.1-.12,.2-.16,.31-.03,.09-.01,.16,.06,.21,.06,.05,.14,.04,.2,0,.07-.05,.09-.12,.05-.21Zm-.17,.13s-.06,.02-.09,0c-.03-.02-.04-.06-.03-.1,.02-.04,.04-.09,.07-.14,.03,.06,.05,.1,.07,.14,.01,.04,0,.07-.03,.1Z"/>
      <path class="cls-4" d="M38.76,216.08c-.04-.11-.1-.21-.16-.31-.06,.11-.12,.21-.16,.31-.03,.08,0,.16,.06,.21,.06,.05,.14,.05,.2,0,.06-.05,.09-.12,.06-.21Zm-.18,.13s-.06,.02-.09,0c-.03-.02-.04-.05-.03-.09,.02-.05,.04-.1,.07-.14,.03,.05,.05,.09,.07,.14,.01,.04,0,.07-.03,.09Z"/>
      <path class="cls-4" d="M41.8,216.08c-.04-.11-.1-.21-.16-.32-.07,.11-.13,.21-.16,.32-.03,.08,0,.15,.06,.2,.06,.05,.14,.05,.2,0,.06-.05,.08-.12,.06-.2Zm-.18,.12s-.06,.02-.09,0c-.03-.02-.04-.05-.03-.09,.02-.05,.04-.09,.07-.14,.04,.05,.06,.1,.08,.14,.01,.04,0,.07-.03,.09Z"/>
      <path class="cls-4" d="M43.32,216.09c-.04-.11-.1-.22-.16-.32-.06,.11-.13,.21-.16,.33-.02,.08,0,.15,.06,.2,.06,.04,.14,.04,.2,0,.06-.05,.09-.12,.06-.2Zm-.18,.11s-.06,.02-.09,0c-.03-.02-.04-.05-.03-.09,.02-.05,.04-.09,.08-.15,.03,.05,.05,.1,.07,.14,.01,.04,0,.07-.03,.09Z"/>
      <path class="cls-4" d="M40.27,216.07c-.04-.11-.09-.2-.16-.31-.06,.11-.12,.2-.16,.31-.03,.08,0,.16,.06,.21,.06,.05,.14,.05,.21,0,.07-.05,.09-.12,.05-.21Zm-.17,.13s-.06,.02-.09,0c-.03-.03-.04-.06-.02-.1,.02-.04,.04-.08,.07-.14,.03,.06,.05,.1,.07,.14,.01,.04,0,.07-.02,.1Z"/>
      <path class="cls-4" d="M42.56,215.17c-.04-.11-.1-.21-.16-.32-.07,.11-.13,.21-.16,.32-.03,.08,0,.15,.06,.2,.06,.04,.15,.04,.21,0,.06-.05,.08-.12,.06-.2Zm-.18,.12s-.06,.02-.09,0c-.03-.02-.04-.05-.03-.09,.02-.05,.04-.09,.07-.15,.04,.05,.06,.1,.08,.14,.01,.04,0,.07-.03,.09Z"/>
      <path class="cls-4" d="M39.53,215.18c-.03-.12-.1-.23-.17-.34-.06,.12-.14,.22-.17,.35-.02,.07,.01,.14,.07,.18,.06,.04,.14,.03,.19,0,.06-.04,.09-.11,.07-.18Zm-.19,.1s-.06,.02-.09,0c-.03-.02-.04-.06-.03-.1,.02-.04,.04-.09,.07-.14,.03,.06,.05,.1,.07,.14,.02,.04,0,.07-.03,.09Z"/>
    </g>
    <path class="cls-4" d="M56.57,226.46h-8.43c-.25,0-.45-.21-.45-.46v-12.35c0-.25,.2-.46,.45-.46h8.43c.25,0,.45,.21,.45,.46v12.35c0,.25-.2,.46-.45,.46Zm-8.43-12.96c-.08,0-.15,.07-.15,.15v12.35c0,.08,.07,.15,.15,.15h8.43c.08,0,.15-.07,.15-.15v-12.35c0-.08-.07-.15-.15-.15h-8.43Z"/>
    <path class="cls-4" d="M45.09,226.46h-8.43c-.25,0-.45-.21-.45-.46v-12.35c0-.25,.2-.46,.45-.46h8.43c.25,0,.45,.21,.45,.46v12.35c0,.25-.2,.46-.45,.46Zm-8.43-12.96c-.08,0-.15,.07-.15,.15v12.35c0,.08,.07,.15,.15,.15h8.43c.08,0,.15-.07,.15-.15v-12.35c0-.08-.07-.15-.15-.15h-8.43Z"/>
  </g>
</svg>